<svg width="275" height="32" fill="none" xmlns="http://www.w3.org/2000/svg">
  <path d="M87.717 1.882V4.77H83.74v8.71c.248-.03.597-.066 1.05-.11.45-.044.858-.088 1.223-.132.364-.043.797-.098 1.3-.163a37.86 37.86 0 0 0 1.278-.187l.263 2.976c-.219.03-.536.07-.951.12a37.624 37.624 0 0 1-2.185.209c-.4.03-.746.058-1.037.088-.277.014-.7.04-1.267.077-.569.036-.955.062-1.158.076-.19.015-.492.03-.907.043a27.74 27.74 0 0 1-.93.022V1.882h7.298Zm6.118 5.887V0h3.234v20.659h-3.234v-9.87h-1.399v8.994H89.29V.482h3.146v7.287h1.399ZM110.19 20.634h-3.418v-8.233h-7.268V9.497h11.854c.029-.173.061-.35.098-.53a17.16 17.16 0 0 0 .183-1.138c.044-.317.079-.57.108-.758.029-.16.062-.43.098-.813l.075-.79c.015-.145.036-.376.066-.694.028-.318.05-.592.065-.823h-10.6V1.047h14.061c0 .26-.007.653-.021 1.18-.014.529-.037.957-.065 1.29-.015.303-.047.733-.097 1.289a72.453 72.453 0 0 1-.4 3.521c-.015.116-.04.282-.076.499-.037.216-.069.441-.098.671h2.791v2.904h-7.355v8.233h-.001ZM129.774 1.75v2.933h-6.03v8.994c.262-.014.641-.04 1.136-.076.495-.037.859-.062 1.093-.076l1.431-.132c.633-.059 1.125-.11 1.475-.153.363-.043.808-.099 1.332-.164.525-.065.918-.12 1.18-.164l.393 2.977c-.247.028-.593.072-1.037.13a53.177 53.177 0 0 1-2.491.285 80.418 80.418 0 0 1-3.147.242 130.4 130.4 0 0 0-1.431.087c-.291.015-.775.033-1.453.055-.677.021-1.118.033-1.321.033h-.525V1.75h9.395Zm6.424 18.909h-3.366V0h3.366v20.659ZM139.942 4.817V1.914h10.384v2.903h-3.462v.173a30.966 30.966 0 0 0 .065 1.603l.13.91c.057.405.115.73.173.975.058.232.154.56.291.986.138.427.271.77.401 1.03.116.246.277.542.486.888.209.347.393.621.552.823.159.202.368.459.627.77.26.31.469.545.628.704.187.188.421.405.703.65.28.246.515.448.703.607l-2.467 2.383-.8-.747a9.518 9.518 0 0 1-.822-.856 99.825 99.825 0 0 1-.704-.877c-.28-.354-.515-.676-.703-.964l-.421-.694a21.635 21.635 0 0 1-.465-.801 8.026 8.026 0 0 1-.39.8c-.144.261-.274.485-.389.672-.172.275-.404.607-.692.998-.289.39-.52.693-.693.91-.202.245-.458.538-.768.877-.31.34-.566.596-.768.77l-2.704-2.276c.187-.159.433-.396.735-.715.303-.318.541-.577.714-.78.173-.202.401-.469.682-.802.281-.331.501-.614.66-.845.144-.217.31-.488.497-.813.188-.325.339-.609.455-.855.115-.231.227-.513.334-.845.109-.332.192-.599.25-.802.028-.144.079-.43.151-.855.072-.426.116-.755.13-.986.029-.246.051-.574.065-.986.014-.412.022-.697.022-.856v-.174h-3.59Zm15.965 15.817h-3.331V.181h3.331v20.453ZM168.254 4.246v2.45h-5.112v1.227h.436c.291 0 .79-.015 1.496-.044.707-.029 1.307-.051 1.803-.066.394-.03.98-.066 1.759-.11a29.399 29.399 0 0 0 1.715-.131l.219 2.582a31.08 31.08 0 0 1-1.453.132c-.605.044-1.089.08-1.454.11a316.673 316.673 0 0 1-3.626.153c-.38.014-.944.026-1.694.033-.75.007-1.278.01-1.585.01h-.984V.612h9.484V3.24h-6.117v1.007h5.113Zm7.822 16.063h-14.333v-5.647h10.662v-.7h-10.837V11.38h14.202v5.515h-10.663v.743h10.969v2.67ZM172.405 0h3.365v10.723h-3.365V6.74h-3.146V3.895h3.146V0ZM192.142.203h3.331v12.87h-3.331v-1.43h-2.466V8.87h2.466v-.997h-2.466V5.88h-10.903V3.323h11.422V5.1h1.947V.203Zm-8.372 12.784c-.259-.03-.454-.05-.584-.065l-.541-.109a6.074 6.074 0 0 1-.54-.13 4.314 4.314 0 0 1-.486-.184 8.308 8.308 0 0 1-.444-.206 2.421 2.421 0 0 1-.444-.292 4.975 4.975 0 0 1-.378-.336 1.794 1.794 0 0 1-.325-.379 3.03 3.03 0 0 1-.216-.4 2.588 2.588 0 0 1-.173-.532 2.976 2.976 0 0 1 0-1.419c.057-.23.115-.404.173-.52a3.03 3.03 0 0 1 .216-.4c.087-.138.195-.264.325-.38.1-.1.227-.212.378-.335.151-.123.3-.221.444-.293a2.79 2.79 0 0 1 .444-.217 6.015 6.015 0 0 1 1.026-.314c.216-.05.397-.083.541-.097.13-.028.325-.054.584-.075.26-.022.498-.033.714-.033.217 0 .454.011.714.033.26.021.455.047.584.075.159.014.343.048.552.098a6.164 6.164 0 0 1 1.017.314c.18.072.328.144.443.216.145.072.292.17.443.293.152.123.278.235.38.335.13.116.237.242.324.38.087.137.159.27.217.4.057.116.116.29.172.52a2.922 2.922 0 0 1 0 1.42 2.744 2.744 0 0 1-.389.931 1.789 1.789 0 0 1-.324.38c-.102.1-.228.213-.38.335-.151.123-.299.22-.443.292a9.733 9.733 0 0 1-.443.206c-.181.08-.343.141-.487.185a6.39 6.39 0 0 1-.53.129c-.209.044-.393.08-.552.109-.129.013-.324.035-.584.065-.26.03-.497.043-.714.043-.216 0-.454-.014-.714-.043ZM181.369.29h6.23v2.427h-6.23V.29Zm10.773 20.324v-4.16h-10.773v-2.687h14.104v6.848h-3.331v-.001Zm-7.269-9.945.303-.066c.072-.03.159-.065.259-.108a1.19 1.19 0 0 0 .239-.13c.058-.058.112-.116.162-.174a.832.832 0 0 0 .119-.173.895.895 0 0 0 .097-.238.909.909 0 0 0 .032-.217c0-.072-.01-.151-.032-.238a.609.609 0 0 0-.097-.216.834.834 0 0 0-.119-.173 3.213 3.213 0 0 0-.162-.174 1.714 1.714 0 0 0-.239-.141 1.09 1.09 0 0 0-.259-.097 1.63 1.63 0 0 0-.303-.077 2.37 2.37 0 0 0-.778 0 1.554 1.554 0 0 0-.303.077 1.583 1.583 0 0 0-.497.239 3.241 3.241 0 0 0-.163.173.869.869 0 0 0-.119.173.609.609 0 0 0-.097.216 1.017 1.017 0 0 0-.031.238.953.953 0 0 0 .128.455.832.832 0 0 0 .119.173c.051.058.104.117.163.173.057.043.137.087.238.131l.259.108.303.066a1.77 1.77 0 0 0 .778 0ZM205.898.657v.985c0 .19.011.507.033.952.021.445.046.784.076 1.018.043.277.113.62.207 1.028.095.409.2.737.317.985.117.263.27.544.46.843.189.298.357.536.502.71.189.22.407.456.656.713.247.255.465.462.655.623.219.175.481.387.787.635.305.248.59.467.852.656l-2.425 2.473a96.898 96.898 0 0 1-.722-.624 31.402 31.402 0 0 1-.721-.646 73.696 73.696 0 0 1-.71-.722 18.624 18.624 0 0 1-.711-.766 6.972 6.972 0 0 1-.491-.624 24.87 24.87 0 0 1-.491-.71 10.603 10.603 0 0 1-.874 1.312 9.247 9.247 0 0 1-.71.821 41.52 41.52 0 0 1-.688.71c-.19.19-.43.424-.722.701-.291.278-.517.49-.677.636l-2.535-2.299c.191-.146.428-.34.711-.58.284-.24.513-.44.688-.602.203-.174.408-.368.612-.579.205-.21.393-.412.568-.602.16-.174.343-.405.546-.689a7.15 7.15 0 0 0 .482-.754c.101-.176.206-.402.316-.68.109-.276.193-.503.251-.677.058-.19.113-.434.164-.734.051-.299.084-.55.099-.754.028-.205.05-.493.065-.864.014-.372.022-.646.022-.822V.657h3.408Zm-4.501 12.605h3.365v4.07h10.968v2.888h-14.333v-6.958Zm13.94 1.926h-3.365V0h3.365v15.188ZM224.397 9.02l-.087.13c-.159.232-.353.481-.584.749-.231.267-.44.495-.628.682-.187.189-.4.39-.638.607-.237.216-.429.382-.573.498-.144.117-.364.278-.659.487-.296.21-.523.365-.682.466l-2.487-2.405c.159-.101.385-.25.68-.444.296-.196.531-.357.704-.487.144-.101.328-.236.552-.401.223-.166.413-.321.573-.466.158-.145.346-.332.562-.563a5.52 5.52 0 0 0 .477-.564 4.74 4.74 0 0 0 .626-1.126c.072-.159.142-.372.206-.64a4.57 4.57 0 0 0 .119-.64c.013-.086.029-.209.042-.367l.044-.455h-3.483V1.177h10.47v2.904h-3.547c.028.115.046.235.054.357.006.123.017.22.031.292.029.145.08.355.152.629.072.275.152.513.238.714.072.174.187.387.346.64.159.253.311.466.455.64.144.173.328.36.552.563.223.202.414.368.573.498.144.101.313.223.509.368.194.145.378.275.551.39.173.102.364.217.574.347.208.13.4.245.573.346l-2.186 2.514a21.568 21.568 0 0 1-1.211-.78 12.918 12.918 0 0 1-1.276-1.04l-.703-.705a6.432 6.432 0 0 1-.638-.725l-.087-.13a.388.388 0 0 0-.109-.108 3.985 3.985 0 0 1-.085.13Zm-3.245 4.463h3.331v3.857h10.946v2.86h-14.277v-6.716Zm13.888 1.518h-3.331V.181h3.331V15ZM256.132 10.966v2.452h-18.223v-2.452h18.223Zm-16.78-5.864v-2.32h15.34v2.32h-15.34Zm.514 11.446c.08-.249.178-.452.295-.614a3.446 3.446 0 0 1 .895-.787c.16-.102.397-.216.711-.34.312-.124.607-.222.884-.295.247-.074.558-.143.929-.209.372-.066.696-.113.972-.143.219-.028.586-.065 1.104-.109.517-.044.994-.065 1.43-.065.438 0 .915.021 1.432.065.517.044.884.08 1.103.11.292.03.622.077.994.142.372.066.673.135.907.21.291.072.591.17.896.294.305.124.539.238.699.34.203.116.378.244.523.383.147.138.27.273.372.404.117.161.215.365.296.614a2.505 2.505 0 0 1 0 1.531 2.178 2.178 0 0 1-.296.613 3.481 3.481 0 0 1-.372.405 2.67 2.67 0 0 1-.523.383 4.57 4.57 0 0 1-.699.34 6.725 6.725 0 0 1-.896.294c-.234.059-.536.124-.907.198-.372.073-.702.124-.994.153-.219.015-.586.048-1.103.099-.517.05-.994.076-1.432.076-.436 0-.913-.026-1.43-.076a39.606 39.606 0 0 0-1.104-.099c-.276-.03-.6-.08-.972-.153-.371-.073-.682-.14-.929-.198a7.627 7.627 0 0 1-.884-.295 4.392 4.392 0 0 1-.711-.339 3.531 3.531 0 0 1-.895-.788 2.15 2.15 0 0 1-.295-.613 2.482 2.482 0 0 1-.119-.766 2.445 2.445 0 0 1 .119-.765Zm.643-9.061c.044-.175.103-.32.176-.438.073-.102.145-.193.219-.273.072-.08.167-.165.283-.252.117-.087.251-.175.405-.262a4.318 4.318 0 0 1 .994-.405c.232-.066.422-.113.568-.143.203-.043.461-.091.775-.142.313-.051.578-.084.798-.1.203-.028.527-.054.972-.076a27.81 27.81 0 0 1 2.698 0c.437.022.757.048.961.077.219.015.488.048.808.099.321.05.577.098.766.142.16.03.353.077.579.142.225.066.404.129.535.187.16.058.318.13.469.219.154.087.281.175.383.262.117.087.215.171.296.252a1.528 1.528 0 0 1 .381.711c.043.175.065.321.065.438 0 .102-.021.244-.065.426a1.507 1.507 0 0 1-.381.722c-.081.08-.179.164-.296.252a1.975 1.975 0 0 1-.383.251c-.151.081-.309.158-.469.23-.131.059-.31.121-.535.187a5.735 5.735 0 0 1-.579.142 8.85 8.85 0 0 1-.766.131l-.808.11c-.204.015-.524.037-.961.066a20.86 20.86 0 0 1-2.698 0c-.445-.03-.769-.051-.972-.066l-.798-.11a10.596 10.596 0 0 1-.775-.131 7.698 7.698 0 0 1-.568-.142 4.32 4.32 0 0 1-.547-.186 20.65 20.65 0 0 1-.447-.23 2.917 2.917 0 0 1-.405-.252 1.928 1.928 0 0 1-.283-.252 2.876 2.876 0 0 1-.219-.273 1.52 1.52 0 0 1-.176-.449 2.063 2.063 0 0 1-.065-.426c0-.117.023-.263.065-.438Zm2.558-7.463h7.821v2.277h-7.821V.024Zm.371 17.377a.382.382 0 0 0 .11.175c.072.058.17.118.295.174.124.06.243.103.36.132.117.03.276.063.48.098.205.037.402.07.591.099a19.87 19.87 0 0 0 1.813.108c.335 0 .692-.014 1.072-.043.378-.03.625-.05.742-.065.19-.03.386-.062.59-.099.203-.036.364-.068.481-.098.117-.03.237-.072.361-.132.123-.057.222-.116.295-.174a.407.407 0 0 0 .11-.175.736.736 0 0 0 .021-.153.74.74 0 0 0-.021-.153.408.408 0 0 0-.11-.175.92.92 0 0 0-.295-.187 2.692 2.692 0 0 0-.361-.119c-.117-.03-.277-.066-.481-.11a4.665 4.665 0 0 0-.59-.087 21.673 21.673 0 0 0-.742-.066 14.464 14.464 0 0 0-1.072-.044c-.32 0-.673.016-1.06.044a21.3 21.3 0 0 0-.753.066 4.52 4.52 0 0 0-.591.087c-.203.044-.363.08-.48.11-.117.03-.236.07-.36.12a.898.898 0 0 0-.295.186.406.406 0 0 0-.11.175.632.632 0 0 0-.022.153c0 .043.007.095.022.153Zm.623-9.443c.022.036.04.07.054.098.029.03.077.058.142.087.066.03.128.06.186.088.073.015.189.04.35.077.16.036.342.069.546.099l.765.054a13.898 13.898 0 0 0 1.89 0c.313-.021.565-.04.753-.054.204-.03.39-.063.558-.1.168-.036.28-.061.339-.076.072-.029.138-.058.197-.088a.512.512 0 0 0 .131-.087c.014-.029.033-.062.054-.098a.185.185 0 0 0 .033-.099.243.243 0 0 0-.033-.109.342.342 0 0 0-.054-.088.821.821 0 0 0-.131-.098.572.572 0 0 0-.197-.076 1.634 1.634 0 0 0-.339-.098 3.853 3.853 0 0 0-.558-.077 7.443 7.443 0 0 0-.753-.066 19.811 19.811 0 0 0-1.89 0 8.211 8.211 0 0 0-.765.066 3.532 3.532 0 0 0-.896.175.75.75 0 0 0-.186.076.71.71 0 0 0-.142.098.373.373 0 0 0-.054.088.255.255 0 0 0-.034.11c0 .028.012.062.034.098ZM265.958 14.871h-2.163v2.6H275v2.817h-14.537v-6.066h2.164v-2.557a32.674 32.674 0 0 1-1.472.044 128.965 128.965 0 0 1-3.028.043l-.476-2.817a153.743 153.743 0 0 0 3.439-.043c.418-.014.97-.025 1.655-.033a41.39 41.39 0 0 0 1.46-.033 382.59 382.59 0 0 0 3.57-.216c.332-.028.775-.068 1.331-.119.555-.05 1.019-.097 1.395-.141l.216 2.687c-.346.043-.778.094-1.297.151-.52.058-.967.102-1.342.131-.274.014-.602.04-.984.076-.383.036-.761.068-1.137.097v3.38h.001Zm-6.88-11.397a3.85 3.85 0 0 1 .196-.65 5.19 5.19 0 0 1 .226-.445 2.42 2.42 0 0 1 .271-.38 4.957 4.957 0 0 1 .801-.714c.116-.072.274-.16.476-.26.202-.101.368-.173.498-.218a10.096 10.096 0 0 1 1.06-.26c.115-.027.364-.06.747-.096.381-.036.673-.054.875-.054.202 0 .495.018.877.054.382.036.631.069.747.097.158.03.342.069.552.119.208.05.378.098.508.14a4.6 4.6 0 0 1 .508.218c.209.1.365.187.466.26.143.101.288.212.432.336.145.123.268.25.368.379.101.116.195.242.282.38.087.137.158.285.216.444.072.173.137.39.195.65.057.26.087.512.087.758s-.03.499-.087.759c-.058.26-.122.477-.195.65a2.98 2.98 0 0 1-.498.823c-.1.13-.223.258-.368.38a6.126 6.126 0 0 1-.432.336c-.101.072-.257.16-.466.26a4.433 4.433 0 0 1-.508.216c-.13.044-.3.09-.508.142-.21.05-.394.09-.552.119-.116.014-.365.043-.747.085a8.183 8.183 0 0 1-.877.066c-.201 0-.493-.021-.875-.066a99.413 99.413 0 0 1-.747-.085 10.719 10.719 0 0 1-.552-.119 6.17 6.17 0 0 1-.508-.142 3.93 3.93 0 0 1-.498-.216 5.924 5.924 0 0 1-.476-.26 4.596 4.596 0 0 1-.801-.716 2.133 2.133 0 0 1-.271-.39 11.709 11.709 0 0 1-.226-.433 3.984 3.984 0 0 1-.196-.65 3.538 3.538 0 0 1-.086-.759c0-.246.029-.497.086-.758Zm3.235 1.007a.842.842 0 0 0 .098.25c.042.072.097.144.162.217.065.072.125.13.184.173a2.509 2.509 0 0 0 .627.282c.129.029.274.054.433.076.158.021.295.033.41.033.115 0 .253-.012.411-.033.159-.022.303-.047.433-.076.116-.029.227-.068.336-.12.107-.05.205-.104.292-.162a.766.766 0 0 0 .195-.173 2.03 2.03 0 0 0 .151-.217.9.9 0 0 0 .097-.25c.021-.093.032-.176.032-.249 0-.072-.011-.158-.032-.26a.63.63 0 0 0-.097-.237 2.029 2.029 0 0 0-.151-.218.738.738 0 0 0-.195-.173 2.358 2.358 0 0 0-.292-.162 1.858 1.858 0 0 0-.336-.119 5.629 5.629 0 0 0-.433-.076 3.03 3.03 0 0 0-.411-.033c-.115 0-.252.011-.41.033a5.078 5.078 0 0 0-.433.076 2.498 2.498 0 0 0-.627.28 1.251 1.251 0 0 0-.184.174 1.388 1.388 0 0 0-.162.218.6.6 0 0 0-.098.238 1.254 1.254 0 0 0-.033.259c0 .073.011.156.033.25Zm8.967-4.3h3.332v15.73h-3.332v-1.3h-3.548v-2.688h3.548V.181Z" fill="#fff"/>
  <path d="M40.226 4.43 41.41 0h-4.423c2.443 0 3.892 1.983 3.238 4.43ZM29.612 27.56l-1.185 4.431h4.423c-2.443 0-3.892-1.984-3.238-4.43Z" fill="#DCD"/>
  <path d="m36.982 0-1.87 6.993h4.423l.685-2.564C40.875 1.983 39.425 0 36.982 0ZM29.609 27.56c-.655 2.446.794 4.43 3.237 4.43L38.94 9.217h-4.423L29.609 27.56ZM29.784 0l-4.346 16.246-2.262 8.455c-8.19-.023-13.884-1.342-14.206-4.83-.491-5.312 11.048-9.465 16.208-11.05l.544-2.034C18.408 8.965-.758 15.5.023 23.954.52 29.33 8.54 31.99 21.227 31.99h4.422L34.207 0h-4.423Z" fill="#fff"/>
  <path d="M25.645 31.993c-5.72-.011-21.662-1.957-23.09-8.207-1.202-5.262 5.748-10.034 8.815-11.544l.003-.001C5.097 15.313-.403 19.35.023 23.958c.497 5.376 8.516 8.035 21.204 8.035h4.418Z" fill="#DCD"/>
  <path d="m40.043 31.989 4.346-16.246 2.262-8.455c8.19.023 13.883 1.341 14.206 4.829.49 5.312-11.05 9.465-16.208 11.05l-.544 2.034c7.314-2.177 26.48-8.712 25.699-17.167C69.306 2.658 61.288 0 48.6 0h-4.423L35.62 31.989h4.423Z" fill="#fff"/>
  <path d="M44.18 0c5.72.01 21.662 1.956 23.09 8.206 1.202 5.262-5.748 10.035-8.815 11.545l-.003.002c6.276-3.073 11.776-7.11 11.35-11.718C69.305 2.658 61.287 0 48.598 0H44.18Z" fill="#DCD"/>
  <path d="M80.41 24.21h1.869c.224 0 .476.014.757.043.279.029.537.084.773.165.185.058.377.144.576.256.199.112.353.226.462.342.133.127.248.28.347.459.098.18.184.37.26.572.056.155.11.375.16.658a4.895 4.895 0 0 1 0 1.68c-.05.284-.104.503-.16.66a4.26 4.26 0 0 1-.26.57 1.885 1.885 0 0 1-.81.793c-.198.113-.39.2-.575.265a4.106 4.106 0 0 1-.773.16c-.28.032-.532.047-.757.047h-1.87v-6.67Zm1.332 5.545h.458c.127 0 .291-.012.493-.035a2.7 2.7 0 0 0 .493-.095c.127-.04.248-.096.364-.169a1.29 1.29 0 0 0 .302-.264c.063-.075.126-.182.186-.32a2.404 2.404 0 0 0 .203-.807c.017-.185.026-.358.026-.52 0-.162-.009-.335-.026-.52a2.344 2.344 0 0 0-.203-.805 1.32 1.32 0 0 0-.186-.32 1.262 1.262 0 0 0-.302-.265 1.627 1.627 0 0 0-.364-.17 2.753 2.753 0 0 0-.493-.095 4.609 4.609 0 0 0-.493-.034h-.458v4.419ZM89.071 30.674c-.089.068-.167.12-.236.154-.091.045-.212.09-.363.129-.152.04-.302.06-.45.06-.103 0-.208-.012-.317-.034a2.618 2.618 0 0 1-.29-.078 1.242 1.242 0 0 1-.583-.455 1.23 1.23 0 0 1-.158-.364 1.728 1.728 0 0 1-.03-.81c.023-.132.052-.238.086-.318.028-.063.07-.132.124-.21a.82.82 0 0 1 .158-.176 1.85 1.85 0 0 1 .257-.167c.108-.06.211-.107.308-.142a2.72 2.72 0 0 1 .321-.086l.364-.077a6.39 6.39 0 0 0 .266-.047l.29-.056c.064-.012.124-.027.18-.047a.356.356 0 0 0 .138-.08.241.241 0 0 0 .06-.1.427.427 0 0 0 .017-.124v-.154a.554.554 0 0 0-.12-.344.434.434 0 0 0-.193-.145.642.642 0 0 0-.531.013.482.482 0 0 0-.21.168.735.735 0 0 0-.098.226.89.89 0 0 0-.039.211H86.79c0-.115.019-.237.056-.37.037-.13.076-.236.116-.317a1.696 1.696 0 0 1 .41-.47 2.476 2.476 0 0 1 .6-.25c.097-.023.21-.04.339-.052.128-.011.247-.016.355-.016.114 0 .238.01.373.03.134.02.25.044.347.072a1.94 1.94 0 0 1 .53.24c.086.058.167.133.244.228.077.094.138.19.184.287a1.5 1.5 0 0 1 .116.4c.026.156.039.309.039.458v2.238c0 .161.018.315.055.464.038.148.067.254.09.317h-1.241l-.068-.184a1.112 1.112 0 0 1-.06-.236.885.885 0 0 1-.203.214Zm-.038-1.891a1.743 1.743 0 0 0-.171.039c-.063.011-.13.025-.201.042a5.069 5.069 0 0 1-.193.043.772.772 0 0 0-.158.047 1.044 1.044 0 0 0-.142.064.747.747 0 0 0-.103.078.782.782 0 0 0-.094.094.665.665 0 0 0-.081.17.635.635 0 0 0-.04.207c0 .092.02.173.057.244.037.071.081.13.132.176a.573.573 0 0 0 .192.094.768.768 0 0 0 .184.026.942.942 0 0 0 .227-.035.587.587 0 0 0 .236-.12.635.635 0 0 0 .158-.163.959.959 0 0 0 .159-.403c.01-.086.017-.192.017-.317v-.335a1.033 1.033 0 0 1-.18.049ZM93.056 28.93c0 .076.002.145.008.208l.018.183c.01.058.027.122.047.195.02.072.042.131.065.177.03.046.065.098.109.155a.518.518 0 0 0 .15.14.7.7 0 0 0 .178.074.736.736 0 0 0 .376.012.625.625 0 0 0 .182-.051.61.61 0 0 0 .345-.355.703.703 0 0 0 .053-.182h1.176a1.978 1.978 0 0 1-.208.701c-.057.11-.125.206-.203.286-.078.082-.154.15-.23.209a.994.994 0 0 1-.259.142 3.22 3.22 0 0 1-.32.109 3.604 3.604 0 0 1-.744.087 3.1 3.1 0 0 1-.796-.113 1.877 1.877 0 0 1-.648-.364 1.536 1.536 0 0 1-.299-.377c-.09-.153-.16-.32-.212-.498a3.157 3.157 0 0 1-.1-.511c-.02-.18-.029-.376-.029-.59a3.431 3.431 0 0 1 .182-1.109 2.488 2.488 0 0 1 .31-.588c.053-.07.123-.147.212-.234.09-.087.172-.156.246-.208.081-.052.173-.101.277-.147.104-.046.2-.081.286-.104.063-.017.15-.035.264-.052a1.98 1.98 0 0 1 .307-.026c.167 0 .33.013.488.039.158.026.299.065.42.117.104.04.205.096.302.165a2.018 2.018 0 0 1 .48.477 1.7 1.7 0 0 1 .17.32 3.408 3.408 0 0 1 .234 1.264c.005.197.008.347.008.45h-2.845Zm1.504-.934c0-.058-.004-.12-.013-.187a3.144 3.144 0 0 0-.03-.186.83.83 0 0 0-.057-.173.827.827 0 0 0-.081-.147.526.526 0 0 0-.105-.109.807.807 0 0 0-.138-.09.5.5 0 0 0-.169-.057 1.176 1.176 0 0 0-.169-.013.76.76 0 0 0-.328.078.658.658 0 0 0-.25.234.825.825 0 0 0-.08.168c-.023.067-.04.12-.052.161l-.021.152a1.16 1.16 0 0 0-.013.169h1.506ZM99.83 29.831a.979.979 0 0 1-.33.249 1.658 1.658 0 0 1-.227.09c-.092.023-.189.04-.292.051a2.05 2.05 0 0 1-.248.017c-.086 0-.188-.013-.308-.039a2.143 2.143 0 0 1-.351-.107 2.096 2.096 0 0 1-.308-.184 1.809 1.809 0 0 1-.326-.288 1.861 1.861 0 0 1-.172-.248 2.552 2.552 0 0 1-.153-.31 1.763 1.763 0 0 1-.103-.38 2.687 2.687 0 0 1-.043-.46c0-.131.013-.276.04-.433.025-.157.06-.3.106-.425.034-.096.082-.204.145-.322.063-.117.14-.221.231-.312.097-.097.205-.188.322-.271.117-.083.23-.145.338-.184.097-.034.203-.065.317-.09.114-.026.223-.04.326-.04.097 0 .19.007.278.017.088.012.172.032.252.06.075.023.143.05.206.082.062.032.12.07.17.117a1.198 1.198 0 0 1 .24.282l.01-.42h1.284v3.628c0 .166-.012.348-.034.544a1.93 1.93 0 0 1-.094.451 1.823 1.823 0 0 1-.18.373 1.241 1.241 0 0 1-.24.262 1.625 1.625 0 0 1-.3.193 2.27 2.27 0 0 1-.325.133 2.44 2.44 0 0 1-.441.09 4.286 4.286 0 0 1-.916.009 3.145 3.145 0 0 1-.381-.056 4.353 4.353 0 0 1-.304-.09 1.443 1.443 0 0 1-.313-.15 1.446 1.446 0 0 1-.429-.488 1.42 1.42 0 0 1-.093-.27 1.367 1.367 0 0 1-.043-.34h1.216a.446.446 0 0 0 .172.352c.057.04.132.073.227.099.094.025.195.038.303.038.08 0 .163-.007.249-.021a.883.883 0 0 0 .222-.064.518.518 0 0 0 .167-.12.932.932 0 0 0 .116-.146.608.608 0 0 0 .068-.168 2.11 2.11 0 0 0 .043-.209c.012-.052.018-.109.022-.172.002-.063.004-.131.004-.206v-.273l-.12.15Zm-1.5-1.248c.023.097.046.171.069.224.023.045.057.106.103.184a.52.52 0 0 0 .18.184c.068.046.15.08.244.103a.994.994 0 0 0 .21.034c.045 0 .11-.006.196-.016a.501.501 0 0 0 .206-.068.654.654 0 0 0 .163-.146.918.918 0 0 0 .12-.198 2.03 2.03 0 0 0 .085-.278c.028-.118.043-.245.043-.381 0-.15-.01-.28-.03-.396a1.254 1.254 0 0 0-.099-.317.743.743 0 0 0-.308-.334.72.72 0 0 0-.202-.068 1.034 1.034 0 0 0-.192-.026.765.765 0 0 0-.18.026.807.807 0 0 0-.154.05.808.808 0 0 0-.171.113.57.57 0 0 0-.112.128 1.03 1.03 0 0 0-.094.181c-.029.068-.048.13-.06.188a6.076 6.076 0 0 0-.034.215c-.012.08-.017.16-.017.24 0 .141.012.262.034.358ZM106.859 26.238v3.578c0 .184.007.38.022.585.014.204.024.365.03.48h-1.289l-.052-.545c-.04.058-.083.114-.129.169a1.685 1.685 0 0 1-.377.308 1.246 1.246 0 0 1-.246.112 1.869 1.869 0 0 1-.597.096c-.075 0-.173-.015-.294-.044a2.496 2.496 0 0 1-.294-.086 1.545 1.545 0 0 1-.268-.144 1.45 1.45 0 0 1-.234-.186 1.698 1.698 0 0 1-.203-.269 1.204 1.204 0 0 1-.134-.295 1.617 1.617 0 0 1-.073-.389 5.27 5.27 0 0 1-.014-.347v-3.023h1.297v2.798c0 .075.006.153.017.234.012.081.024.15.035.207a.93.93 0 0 0 .147.33c.028.04.07.08.125.117.055.038.103.069.143.092a.822.822 0 0 0 .312.069.769.769 0 0 0 .169-.021.568.568 0 0 0 .151-.057c.046-.028.088-.058.125-.087a.469.469 0 0 0 .1-.104c.029-.04.058-.087.086-.14.029-.05.053-.1.07-.146a1.74 1.74 0 0 0 .078-.494v-2.798h1.297ZM111.463 24.21h1.869c.224 0 .477.014.757.043.279.029.538.084.775.165.184.058.376.144.574.256.2.112.354.226.464.342.132.127.247.28.345.459.098.18.185.37.26.572.057.155.111.375.16.658a4.915 4.915 0 0 1 0 1.68 3.989 3.989 0 0 1-.16.66 4.299 4.299 0 0 1-.26.57 1.9 1.9 0 0 1-.345.46 2.12 2.12 0 0 1-.464.333c-.198.113-.39.2-.574.265a4.114 4.114 0 0 1-.775.16c-.28.032-.532.047-.757.047h-1.869v-6.67Zm1.333 5.545h.459c.126 0 .29-.012.492-.035.202-.023.367-.055.493-.095.127-.04.248-.096.363-.169.116-.072.216-.16.303-.264.063-.075.126-.182.186-.32a2.322 2.322 0 0 0 .203-.807c.017-.185.026-.358.026-.52 0-.162-.009-.335-.026-.52a2.349 2.349 0 0 0-.203-.805 1.303 1.303 0 0 0-.186-.32 1.253 1.253 0 0 0-.303-.265 1.623 1.623 0 0 0-.363-.17 2.736 2.736 0 0 0-.493-.095 4.6 4.6 0 0 0-.492-.034h-.459v4.419ZM119.306 24.274v1.2h-1.354v-1.2h1.354Zm-.034 2.007v4.597h-1.286v-4.597h1.286ZM123.413 29.82a.722.722 0 0 1-.129.126 1.03 1.03 0 0 1-.204.125 1.63 1.63 0 0 1-.229.092c-.092.023-.191.04-.294.051a2.273 2.273 0 0 1-.251.018c-.086 0-.19-.013-.311-.04a2.247 2.247 0 0 1-.355-.108 2.164 2.164 0 0 1-.64-.476 1.83 1.83 0 0 1-.173-.252 2.57 2.57 0 0 1-.156-.311 1.784 1.784 0 0 1-.104-.385 2.679 2.679 0 0 1-.043-.464c0-.133.013-.278.039-.437a2.39 2.39 0 0 1 .108-.429c.035-.098.083-.206.147-.325.064-.119.141-.224.234-.317.098-.097.206-.188.325-.272.118-.084.231-.146.341-.187.098-.035.205-.065.32-.091.116-.026.225-.04.329-.04.098 0 .191.006.281.018.089.012.174.031.255.06.075.024.144.051.208.083.064.032.121.07.173.117a1.321 1.321 0 0 1 .242.286l.008-.424h1.298v3.664c0 .168-.012.351-.035.55a1.868 1.868 0 0 1-.276.832 1.275 1.275 0 0 1-.242.264 1.66 1.66 0 0 1-.303.196 2.206 2.206 0 0 1-.774.225 4.22 4.22 0 0 1-1.31-.048 3.714 3.714 0 0 1-.307-.09 1.431 1.431 0 0 1-.316-.151 1.411 1.411 0 0 1-.432-.494 1.341 1.341 0 0 1-.095-.273 1.369 1.369 0 0 1-.043-.343h1.228a.45.45 0 0 0 .173.355.73.73 0 0 0 .229.1c.096.026.198.04.307.04.08 0 .165-.009.251-.022a.889.889 0 0 0 .225-.065.522.522 0 0 0 .168-.122.65.65 0 0 0 .187-.316 2.29 2.29 0 0 0 .065-.385 6.5 6.5 0 0 0 .004-.208v-.277l-.123.15Zm-1.513-1.26c.023.098.046.173.069.225.023.046.058.108.104.186.046.078.106.14.181.187.07.046.152.08.248.103a.976.976 0 0 0 .211.035c.047 0 .113-.006.199-.017a.494.494 0 0 0 .208-.069.666.666 0 0 0 .164-.147.947.947 0 0 0 .121-.199c.029-.07.058-.163.087-.281.028-.12.042-.247.042-.385 0-.15-.01-.283-.03-.4a1.263 1.263 0 0 0-.099-.32.744.744 0 0 0-.312-.338.695.695 0 0 0-.203-.069 1.038 1.038 0 0 0-.194-.026.773.773 0 0 0-.182.026.771.771 0 0 0-.329.164.545.545 0 0 0-.112.13 1.063 1.063 0 0 0-.095.183c-.029.07-.049.133-.061.19a9.176 9.176 0 0 0-.034.218c-.012.08-.017.161-.017.242-.001.142.01.264.034.362ZM127.625 24.274v1.2h-1.354v-1.2h1.354Zm-.034 2.007v4.597h-1.285v-4.597h1.285ZM129.294 26.237v-.953l1.297-.468v1.42h.977v.953h-.977v2.323c0 .08.006.157.017.23a.423.423 0 0 0 .052.16.353.353 0 0 0 .087.09.34.34 0 0 0 .104.057 1.11 1.11 0 0 0 .489.014l.203-.031v.849c-.052.013-.124.028-.216.047-.093.021-.173.037-.242.048l-.286.026a3.572 3.572 0 0 1-.276.018c-.092 0-.192-.013-.298-.035a3.375 3.375 0 0 1-.273-.07.93.93 0 0 1-.432-.302.908.908 0 0 1-.121-.243 1.546 1.546 0 0 1-.069-.25 2.678 2.678 0 0 1-.026-.308 8.418 8.418 0 0 1-.009-.368V27.19h-.874v-.953h.873v-.001ZM134.831 30.674c-.089.068-.167.12-.236.154-.091.045-.213.09-.364.128a1.76 1.76 0 0 1-.449.061c-.103 0-.209-.012-.317-.035a2.646 2.646 0 0 1-.291-.077 1.23 1.23 0 0 1-.582-.455 1.225 1.225 0 0 1-.158-.364 1.701 1.701 0 0 1-.031-.81 1.49 1.49 0 0 1 .086-.318c.028-.063.07-.133.124-.21a.815.815 0 0 1 .158-.176c.064-.05.149-.106.258-.167.108-.06.211-.107.308-.142.079-.028.187-.057.321-.086l.364-.078c.074-.01.162-.026.265-.046l.291-.056c.063-.012.123-.027.18-.047a.352.352 0 0 0 .137-.08.254.254 0 0 0 .06-.1.438.438 0 0 0 .017-.124v-.154a.552.552 0 0 0-.121-.343.425.425 0 0 0-.193-.146.642.642 0 0 0-.53.013.477.477 0 0 0-.21.167.726.726 0 0 0-.098.227.889.889 0 0 0-.039.211h-1.233c0-.115.019-.237.056-.37.037-.13.075-.236.115-.317.046-.08.107-.165.184-.257.078-.092.153-.163.227-.214.057-.04.148-.086.274-.138.126-.051.235-.088.326-.111.097-.023.21-.04.338-.052.128-.011.247-.016.355-.016.114 0 .239.01.373.03.134.02.249.044.347.072.085.023.177.056.274.098.097.043.183.091.257.142a1.397 1.397 0 0 1 .428.515c.052.109.09.242.116.399.026.157.039.31.039.459v2.238c0 .161.019.315.055.464.037.148.068.254.09.317h-1.241l-.069-.184a1.217 1.217 0 0 1-.06-.236.84.84 0 0 1-.201.214Zm-.038-1.892a1.755 1.755 0 0 0-.171.04c-.063.011-.13.025-.201.042a4.95 4.95 0 0 1-.193.043 1.12 1.12 0 0 0-.3.111.853.853 0 0 0-.197.172.71.71 0 0 0-.081.17.63.63 0 0 0-.039.207c0 .092.018.172.055.244.038.071.082.13.133.176a.577.577 0 0 0 .193.094.77.77 0 0 0 .184.026.933.933 0 0 0 .227-.035.588.588 0 0 0 .235-.12.632.632 0 0 0 .158-.163.934.934 0 0 0 .159-.403 2.56 2.56 0 0 0 .017-.318v-.334a1.059 1.059 0 0 1-.179.048ZM139.101 24.21v6.67h-1.298v-6.67h1.298ZM145.046 30.881h-1.332V24.21h1.332v6.671ZM146.474 30.88v-4.598h1.276v.54c.045-.063.09-.12.132-.171a.997.997 0 0 1 .15-.145 1.16 1.16 0 0 1 .219-.16c.077-.042.158-.078.243-.106a1.883 1.883 0 0 1 .591-.094c.074 0 .171.014.292.042.119.029.217.057.291.086.086.035.174.081.265.142.092.06.169.12.232.184a1.37 1.37 0 0 1 .333.558c.04.125.065.254.072.385.009.132.014.247.014.344v2.993h-1.285v-2.77c0-.08-.006-.16-.017-.236-.012-.077-.022-.144-.034-.202a1.223 1.223 0 0 0-.056-.171.537.537 0 0 0-.091-.154.518.518 0 0 0-.123-.117 2.577 2.577 0 0 0-.142-.09.417.417 0 0 0-.163-.056.74.74 0 0 0-.462.064.952.952 0 0 0-.12.082.53.53 0 0 0-.102.107 1.464 1.464 0 0 0-.154.283 1.077 1.077 0 0 0-.056.227 1.798 1.798 0 0 0-.021.262v2.77h-1.284ZM152.149 30.88v-4.643h1.289v.546a3.5 3.5 0 0 1 .134-.173c.043-.052.094-.101.151-.147.069-.064.143-.118.221-.16.078-.044.16-.08.247-.11a1.894 1.894 0 0 1 .597-.094c.074 0 .172.014.294.043.12.029.219.058.294.086.087.036.175.083.268.144a1.308 1.308 0 0 1 .441.454 1.612 1.612 0 0 1 .203.684c.009.134.013.25.013.348v3.023h-1.297v-2.8c0-.08-.006-.16-.017-.237a4.282 4.282 0 0 0-.035-.204 1.118 1.118 0 0 0-.056-.173.567.567 0 0 0-.091-.156.518.518 0 0 0-.126-.117 2.576 2.576 0 0 0-.142-.091.425.425 0 0 0-.165-.057.731.731 0 0 0-.467.064c-.04.024-.081.052-.121.083a.556.556 0 0 0-.104.108 1.48 1.48 0 0 0-.155.286 1.707 1.707 0 0 0-.078.494v2.798h-1.298v.001ZM159.442 30.976a3.08 3.08 0 0 1-.347-.081 2.63 2.63 0 0 1-.338-.146 1.732 1.732 0 0 1-.278-.171 1.376 1.376 0 0 1-.24-.227 4.554 4.554 0 0 1-.198-.254 2.39 2.39 0 0 1-.282-.591 3.735 3.735 0 0 1-.129-.925c0-.166.014-.339.043-.52.029-.18.058-.316.086-.407.028-.092.068-.193.12-.304.051-.112.105-.208.162-.288.058-.08.123-.164.198-.252a1.35 1.35 0 0 1 .24-.227c.073-.058.167-.115.278-.171.111-.057.223-.107.338-.146.091-.029.207-.056.347-.082.14-.026.284-.038.433-.038.148 0 .292.012.433.038.14.026.255.053.346.082.115.04.227.09.339.146.111.056.204.114.278.17.085.064.165.14.24.228.074.088.139.173.196.252.058.08.112.176.164.288.051.111.091.213.119.304.029.091.057.227.086.408.028.18.043.353.043.518 0 .167-.015.338-.043.515a3.513 3.513 0 0 1-.086.41 2.615 2.615 0 0 1-.119.306 1.742 1.742 0 0 1-.164.286c-.057.08-.122.166-.196.253a1.399 1.399 0 0 1-.24.228 1.828 1.828 0 0 1-.278.17 2.606 2.606 0 0 1-.339.147 3.056 3.056 0 0 1-.346.081 2.39 2.39 0 0 1-.866 0Zm.591-.909c.06-.014.107-.027.142-.04a.72.72 0 0 0 .256-.161.818.818 0 0 0 .121-.154 1.66 1.66 0 0 0 .085-.164c.028-.057.054-.134.077-.23.022-.098.037-.17.042-.216.012-.057.021-.138.031-.244.008-.106.012-.199.012-.279 0-.08-.004-.172-.012-.278a2.436 2.436 0 0 0-.031-.245 2.677 2.677 0 0 0-.042-.215 1.13 1.13 0 0 0-.077-.23 1.93 1.93 0 0 0-.085-.169.608.608 0 0 0-.121-.15.629.629 0 0 0-.12-.093.681.681 0 0 0-.136-.069 1.684 1.684 0 0 0-.142-.039.719.719 0 0 0-.158-.021.72.72 0 0 0-.159.021c-.06.014-.107.027-.141.04-.04.016-.085.04-.133.068a.622.622 0 0 0-.124.094.834.834 0 0 0-.116.15c-.038.06-.067.115-.09.167a1.565 1.565 0 0 0-.068.231c-.023.098-.04.17-.052.215l-.026.245a2.758 2.758 0 0 0-.017.278c0 .08.006.173.017.28l.026.243.052.215c.022.097.045.174.068.231a1.233 1.233 0 0 0 .206.317.926.926 0 0 0 .257.162c.034.013.081.026.141.04.06.014.113.021.159.021a.718.718 0 0 0 .158-.02ZM162.829 26.238h1.383l.959 3.136.995-3.136h1.246l-1.565 4.643h-1.418l-1.6-4.643ZM170.537 30.674a1.4 1.4 0 0 1-.236.154c-.091.045-.212.09-.363.128a1.76 1.76 0 0 1-.449.061 1.56 1.56 0 0 1-.318-.035 2.686 2.686 0 0 1-.29-.077 1.253 1.253 0 0 1-.322-.18 1.41 1.41 0 0 1-.26-.275 1.2 1.2 0 0 1-.159-.364 1.701 1.701 0 0 1-.031-.81 1.49 1.49 0 0 1 .086-.318 1.39 1.39 0 0 1 .124-.21.816.816 0 0 1 .159-.176c.063-.05.148-.106.257-.167.108-.06.211-.107.308-.142.079-.028.187-.057.321-.086l.363-.078c.075-.01.164-.026.266-.046l.291-.056c.064-.012.123-.027.181-.047a.355.355 0 0 0 .136-.08.232.232 0 0 0 .06-.1.405.405 0 0 0 .017-.124v-.154a.566.566 0 0 0-.029-.18.629.629 0 0 0-.09-.164.44.44 0 0 0-.194-.145.666.666 0 0 0-.261-.052.65.65 0 0 0-.27.065.478.478 0 0 0-.209.168.75.75 0 0 0-.099.226.875.875 0 0 0-.038.211h-1.234c0-.115.018-.237.056-.37.037-.13.076-.236.116-.317.045-.08.107-.165.184-.257.077-.091.152-.163.227-.214a2.475 2.475 0 0 1 .599-.25c.098-.022.211-.039.339-.05.128-.012.247-.017.354-.017.114 0 .239.01.374.03.133.02.249.044.346.072a1.886 1.886 0 0 1 .531.24 1.363 1.363 0 0 1 .429.515c.051.109.091.242.116.399.026.157.038.31.038.459v2.238c0 .161.019.315.057.464.037.148.066.254.09.317h-1.243l-.068-.184a1.149 1.149 0 0 1-.06-.236.863.863 0 0 1-.202.214Zm-.038-1.892a1.755 1.755 0 0 0-.171.04 3.507 3.507 0 0 0-.202.042 4.95 4.95 0 0 1-.193.043.8.8 0 0 0-.158.047 1.083 1.083 0 0 0-.142.064.683.683 0 0 0-.102.078.722.722 0 0 0-.095.094.71.71 0 0 0-.081.17.657.657 0 0 0-.039.207c0 .092.019.172.056.244.038.071.081.13.133.176a.577.577 0 0 0 .193.094.762.762 0 0 0 .184.026.94.94 0 0 0 .227-.035.588.588 0 0 0 .235-.12.652.652 0 0 0 .159-.163.983.983 0 0 0 .098-.18.832.832 0 0 0 .06-.223 2.56 2.56 0 0 0 .017-.318v-.334a1.008 1.008 0 0 1-.179.048ZM173.648 26.237v-.953l1.298-.468v1.42h.977v.953h-.977v2.323c0 .08.006.157.016.23.012.072.03.125.053.16a.349.349 0 0 0 .086.09.352.352 0 0 0 .104.057 1.122 1.122 0 0 0 .489.014l.203-.031v.849c-.052.013-.124.028-.216.047-.092.021-.173.037-.242.048l-.286.026a3.601 3.601 0 0 1-.276.018c-.092 0-.193-.013-.299-.035a3.486 3.486 0 0 1-.273-.07.924.924 0 0 1-.432-.302.908.908 0 0 1-.121-.243 1.563 1.563 0 0 1-.07-.25 2.726 2.726 0 0 1-.025-.308 8.418 8.418 0 0 1-.009-.368V27.19h-.874v-.953h.874v-.001ZM178.279 24.274v1.2h-1.353v-1.2h1.353Zm-.034 2.007v4.597h-1.285v-4.597h1.285ZM181.303 30.978a3.145 3.145 0 0 1-.351-.082 2.665 2.665 0 0 1-.342-.147 1.804 1.804 0 0 1-.28-.173 1.356 1.356 0 0 1-.243-.23 4.61 4.61 0 0 1-.199-.255 1.857 1.857 0 0 1-.164-.29 2.632 2.632 0 0 1-.121-.307 3.568 3.568 0 0 1-.087-.416 3.233 3.233 0 0 1 0-1.044c.029-.182.058-.32.087-.411.029-.092.069-.195.121-.308.052-.112.106-.21.164-.29a4.36 4.36 0 0 1 .199-.255c.075-.09.156-.166.243-.23.075-.057.169-.115.28-.173.113-.057.226-.107.342-.146a3.09 3.09 0 0 1 .351-.083 2.406 2.406 0 0 1 .873 0c.141.026.257.054.351.083.114.04.228.09.341.146.113.058.206.116.281.174.087.064.167.14.242.229.075.09.142.174.199.255a2.471 2.471 0 0 1 .285.598c.029.092.058.229.087.411a3.316 3.316 0 0 1 0 1.044 3.568 3.568 0 0 1-.087.416 2.43 2.43 0 0 1-.285.597c-.058.08-.124.166-.199.256a1.33 1.33 0 0 1-.242.229 1.723 1.723 0 0 1-.281.173 2.69 2.69 0 0 1-.341.147 3.2 3.2 0 0 1-.351.082 2.425 2.425 0 0 1-.873 0Zm.597-.917c.061-.015.108-.028.143-.04a.733.733 0 0 0 .38-.32c.035-.058.064-.113.087-.165.029-.057.055-.136.078-.234a2.07 2.07 0 0 0 .043-.217 3.38 3.38 0 0 0 .043-.528 3.383 3.383 0 0 0-.086-.746 1.082 1.082 0 0 0-.078-.233 1.74 1.74 0 0 0-.087-.17.594.594 0 0 0-.121-.15.743.743 0 0 0-.402-.203.695.695 0 0 0-.16-.023c-.047 0-.1.007-.16.022a1.62 1.62 0 0 0-.143.04c-.04.016-.086.04-.134.069a.638.638 0 0 0-.243.246c-.037.06-.067.117-.091.169a1.586 1.586 0 0 0-.068.233l-.053.218c-.005.057-.014.14-.026.246-.012.107-.017.201-.017.282 0 .08.006.175.017.282.012.106.021.189.026.246l.053.217c.022.098.045.177.068.234a1.32 1.32 0 0 0 .208.32.59.59 0 0 0 .126.096c.048.03.093.052.134.069.035.012.082.024.143.04.06.014.113.02.16.02a.73.73 0 0 0 .16-.02ZM185.338 30.88v-4.598h1.276v.54c.046-.063.09-.12.133-.171a.989.989 0 0 1 .149-.145c.068-.064.142-.117.219-.16a1.45 1.45 0 0 1 .244-.106 1.823 1.823 0 0 1 .591-.094c.074 0 .17.014.291.042.12.029.217.057.292.086.085.035.173.081.264.142.092.06.169.12.232.184a1.37 1.37 0 0 1 .334.558c.039.125.064.254.072.385.009.132.013.247.013.344v2.993h-1.285v-2.77c0-.08-.005-.16-.016-.236a4.062 4.062 0 0 0-.035-.202.996.996 0 0 0-.055-.171.57.57 0 0 0-.09-.154.512.512 0 0 0-.125-.117 2.594 2.594 0 0 0-.141-.09.422.422 0 0 0-.163-.056.734.734 0 0 0-.462.064.885.885 0 0 0-.12.082.53.53 0 0 0-.102.107 1.283 1.283 0 0 0-.155.283 1.083 1.083 0 0 0-.055.227 1.808 1.808 0 0 0-.022.262v2.77h-1.284ZM194.062 24.274h2.09c.147 0 .326.01.535.03.208.02.358.044.45.072.103.029.222.073.358.133.139.061.252.125.344.194.079.056.17.15.269.278.1.128.173.247.219.355.046.103.089.25.129.439.04.188.06.365.06.531 0 .16-.018.336-.056.527a2.177 2.177 0 0 1-.124.442 1.752 1.752 0 0 1-.197.355 1.456 1.456 0 0 1-.578.48c-.118.055-.23.097-.338.125-.126.04-.276.066-.45.08a5.8 5.8 0 0 1-.484.022h-.908v2.54h-1.319v-6.603Zm1.318 2.967h.634c.058 0 .131 0 .223-.005.092-.002.171-.01.24-.021.045-.011.103-.027.171-.047a.448.448 0 0 0 .171-.09.783.783 0 0 0 .124-.137.671.671 0 0 0 .091-.18 1.548 1.548 0 0 0 .076-.454 1.38 1.38 0 0 0-.025-.25 1.471 1.471 0 0 0-.051-.205.522.522 0 0 0-.099-.176 1.48 1.48 0 0 0-.133-.133.514.514 0 0 0-.193-.103 1.452 1.452 0 0 0-.419-.064 7.667 7.667 0 0 0-.219-.004h-.591v1.869ZM200.892 26.24a15.478 15.478 0 0 1 .026.85c.029-.07.066-.142.109-.213.042-.072.088-.138.134-.196a1.83 1.83 0 0 1 .363-.313 1.49 1.49 0 0 1 .194-.086 1.416 1.416 0 0 1 .437-.092c.097-.008.184-.013.259-.013v1.248h-.492a.83.83 0 0 0-.204.03.89.89 0 0 0-.185.066.921.921 0 0 0-.295.251.619.619 0 0 0-.095.183c-.022.068-.04.123-.051.165a2.424 2.424 0 0 0-.044.467v2.296h-1.298v-3.707a10.359 10.359 0 0 0-.042-.936h1.184ZM204.692 30.976a3.028 3.028 0 0 1-.347-.081 2.692 2.692 0 0 1-.338-.146 1.832 1.832 0 0 1-.278-.171 1.376 1.376 0 0 1-.24-.227 3.736 3.736 0 0 1-.197-.253 1.813 1.813 0 0 1-.163-.287 2.522 2.522 0 0 1-.119-.305 3.504 3.504 0 0 1-.086-.41 3.182 3.182 0 0 1 0-1.034c.029-.18.057-.316.086-.408a2.437 2.437 0 0 1 .282-.591c.057-.08.123-.165.197-.253a1.35 1.35 0 0 1 .24-.227c.074-.058.167-.115.278-.171.111-.057.224-.106.338-.146.091-.028.206-.056.347-.081a2.373 2.373 0 0 1 .865 0c.14.025.256.052.347.08.115.04.227.09.338.147.112.056.205.114.278.17.086.065.166.14.241.228.073.088.139.173.197.253a2.38 2.38 0 0 1 .282.591c.029.092.057.227.086.408a3.177 3.177 0 0 1 0 1.033 3.504 3.504 0 0 1-.086.411 2.317 2.317 0 0 1-.479.845 1.367 1.367 0 0 1-.241.227 1.726 1.726 0 0 1-.278.171c-.11.057-.223.106-.338.146a3.08 3.08 0 0 1-.347.081 2.373 2.373 0 0 1-.865 0Zm.591-.909a.76.76 0 0 0 .398-.201.778.778 0 0 0 .12-.154 1.66 1.66 0 0 0 .086-.164c.028-.057.054-.134.077-.23.023-.098.037-.17.042-.215.012-.058.022-.14.03-.245a2.982 2.982 0 0 0-.03-.802 2.281 2.281 0 0 0-.042-.215 1.13 1.13 0 0 0-.077-.23 1.956 1.956 0 0 0-.086-.168.56.56 0 0 0-.12-.15.728.728 0 0 0-.398-.201.72.72 0 0 0-.159-.022.719.719 0 0 0-.158.022c-.06.014-.107.027-.141.039a1.07 1.07 0 0 0-.133.068.623.623 0 0 0-.124.094.827.827 0 0 0-.116.15c-.037.059-.067.116-.09.167a1.565 1.565 0 0 0-.068.232c-.023.097-.04.169-.052.214l-.025.245a2.514 2.514 0 0 0-.018.279c0 .08.006.172.018.279l.025.244c.012.045.029.117.052.214.022.097.045.174.068.231a1.242 1.242 0 0 0 .206.318.917.917 0 0 0 .257.162c.034.012.081.025.141.04.06.014.113.02.158.02a.72.72 0 0 0 .159-.02ZM210.114 26.52c.052-.05.098-.088.138-.118a.933.933 0 0 1 .182-.117 1.415 1.415 0 0 1 .501-.165 1.286 1.286 0 0 1 .544.018c.111.026.205.056.286.09.075.03.15.07.225.118a1.373 1.373 0 0 1 .501.559 2.341 2.341 0 0 1 .319-.416 1.403 1.403 0 0 1 .459-.295c.08-.028.173-.052.276-.068.104-.018.202-.027.295-.027a1.572 1.572 0 0 1 .632.148c.08.04.152.084.215.13.064.046.124.095.182.147.069.064.131.14.186.225.055.087.096.17.126.25.045.128.075.287.09.477.014.192.022.353.022.486v2.92h-1.298v-2.79a5.47 5.47 0 0 0-.004-.212 1.256 1.256 0 0 0-.074-.395.767.767 0 0 0-.185-.29.704.704 0 0 0-.269-.135.707.707 0 0 0-.143-.016.509.509 0 0 0-.38.173c-.046.046-.084.09-.113.13a.638.638 0 0 0-.086.156 1.312 1.312 0 0 0-.087.368c-.012.095-.017.18-.017.255v2.755h-1.298v-2.773c0-.064-.003-.137-.008-.221a1.264 1.264 0 0 0-.027-.195.787.787 0 0 0-.113-.338.419.419 0 0 0-.102-.13 1.04 1.04 0 0 0-.139-.103.388.388 0 0 0-.139-.062.685.685 0 0 0-.147-.016.465.465 0 0 0-.285.087.554.554 0 0 0-.13.112c-.04.047-.077.098-.113.155a1.398 1.398 0 0 0-.112.295 3.247 3.247 0 0 0-.044.528v2.66h-1.297v-4.643h1.288v.434c.045-.052.091-.102.143-.152ZM218.437 30.976a3.056 3.056 0 0 1-.346-.081 2.643 2.643 0 0 1-.339-.146 1.875 1.875 0 0 1-.278-.171 1.413 1.413 0 0 1-.24-.227 4.088 4.088 0 0 1-.197-.254 1.742 1.742 0 0 1-.163-.286 2.529 2.529 0 0 1-.119-.305 3.316 3.316 0 0 1-.086-.411 3.183 3.183 0 0 1 0-1.033c.028-.18.057-.317.086-.408.029-.092.068-.193.119-.304.051-.112.106-.208.163-.288.057-.08.122-.164.197-.252.074-.09.155-.164.24-.227.074-.058.167-.115.278-.171.111-.057.224-.107.339-.146.091-.029.206-.056.346-.082.14-.026.284-.038.433-.038.148 0 .293.012.433.038s.256.053.347.082c.114.04.227.09.338.146.112.056.204.114.278.17.085.064.166.14.24.228.074.088.14.173.197.252.057.08.112.176.163.288.051.111.092.213.12.304.028.091.057.227.086.408a3.29 3.29 0 0 1 0 1.033 3.735 3.735 0 0 1-.086.41 2.635 2.635 0 0 1-.12.306 1.742 1.742 0 0 1-.163.286c-.057.08-.122.166-.197.253a1.363 1.363 0 0 1-.24.228 1.78 1.78 0 0 1-.278.17 2.594 2.594 0 0 1-.338.147 3.08 3.08 0 0 1-.347.081 2.373 2.373 0 0 1-.866 0Zm.591-.909c.06-.014.108-.027.142-.04a.699.699 0 0 0 .257-.161.813.813 0 0 0 .12-.154 1.47 1.47 0 0 0 .085-.164c.029-.057.054-.134.077-.23.023-.098.037-.17.042-.216a3.323 3.323 0 0 0 .044-.523 3.325 3.325 0 0 0-.086-.738 1.072 1.072 0 0 0-.077-.23 1.684 1.684 0 0 0-.085-.169.605.605 0 0 0-.12-.15.698.698 0 0 0-.12-.093.663.663 0 0 0-.137-.069 1.583 1.583 0 0 0-.142-.039.666.666 0 0 0-.158-.021.72.72 0 0 0-.159.021 1.45 1.45 0 0 0-.141.04 1.13 1.13 0 0 0-.133.068.622.622 0 0 0-.124.094.834.834 0 0 0-.116.15c-.037.059-.067.115-.09.167a1.855 1.855 0 0 0-.068.231l-.051.215-.026.245a2.492 2.492 0 0 0-.017.278c0 .08.006.173.017.28l.026.243.051.215c.023.097.046.174.068.231a1.264 1.264 0 0 0 .206.318.653.653 0 0 0 .124.094c.049.028.092.052.133.068.034.012.082.025.141.04.06.014.113.02.159.02a.703.703 0 0 0 .158-.02ZM222.581 26.237v-.953l1.298-.468v1.42h.977v.953h-.977v2.323c0 .08.006.157.017.23a.423.423 0 0 0 .052.16.366.366 0 0 0 .19.147 1.137 1.137 0 0 0 .49.014l.203-.031v.849a8.1 8.1 0 0 1-.217.047c-.092.021-.173.037-.241.048l-.286.026a3.601 3.601 0 0 1-.276.018 1.44 1.44 0 0 1-.299-.035 3.486 3.486 0 0 1-.273-.07.945.945 0 0 1-.433-.302.928.928 0 0 1-.12-.243 1.378 1.378 0 0 1-.07-.25 2.93 2.93 0 0 1-.026-.308 10.352 10.352 0 0 1-.009-.368V27.19h-.873v-.953h.873v-.001ZM227.213 24.274v1.2h-1.354v-1.2h1.354Zm-.034 2.007v4.597h-1.285v-4.597h1.285ZM230.237 30.978a3.176 3.176 0 0 1-.35-.082c-.116-.04-.23-.09-.342-.147a1.77 1.77 0 0 1-.281-.173 1.35 1.35 0 0 1-.242-.23 4.175 4.175 0 0 1-.199-.255 1.709 1.709 0 0 1-.164-.29 2.632 2.632 0 0 1-.121-.307 3.568 3.568 0 0 1-.087-.416 3.237 3.237 0 0 1 0-1.044c.029-.182.058-.32.087-.411.029-.092.069-.195.121-.308.051-.112.106-.21.164-.29.057-.08.124-.165.199-.255a1.35 1.35 0 0 1 .242-.23 1.81 1.81 0 0 1 .281-.173c.112-.057.226-.107.342-.146.092-.03.209-.056.35-.083a2.417 2.417 0 0 1 .873 0c.142.026.258.054.351.083.115.04.228.09.341.146.113.058.206.116.281.174a1.4 1.4 0 0 1 .243.229c.074.09.141.174.198.255a2.471 2.471 0 0 1 .285.598c.029.092.059.229.087.411a3.23 3.23 0 0 1 0 1.043 3.37 3.37 0 0 1-.087.417 2.43 2.43 0 0 1-.285.597c-.057.08-.124.166-.198.256-.075.09-.156.166-.243.229a1.723 1.723 0 0 1-.281.173 2.63 2.63 0 0 1-.341.147 3.092 3.092 0 0 1-.351.082 2.414 2.414 0 0 1-.873 0Zm.597-.917c.06-.015.108-.028.143-.04a.733.733 0 0 0 .38-.32c.035-.058.064-.113.087-.165.029-.057.054-.136.078-.234a2.793 2.793 0 0 0 .073-.463 3.383 3.383 0 0 0-.073-1.027 1.14 1.14 0 0 0-.078-.234 1.74 1.74 0 0 0-.087-.17.594.594 0 0 0-.121-.15.743.743 0 0 0-.259-.164c-.035-.013-.083-.025-.143-.04a.663.663 0 0 0-.16-.021c-.047 0-.1.006-.161.021-.06.015-.108.027-.143.04-.039.016-.085.04-.134.069a.66.66 0 0 0-.242.246c-.038.06-.067.117-.091.169a1.701 1.701 0 0 0-.069.233l-.052.218c-.005.057-.014.14-.026.246-.012.107-.017.201-.017.282 0 .08.006.175.017.282.012.106.021.189.026.246l.052.217c.023.098.046.177.069.234a1.32 1.32 0 0 0 .208.32.637.637 0 0 0 .125.096c.049.03.094.052.134.069.035.012.083.024.143.04.061.014.114.02.161.02s.1-.006.16-.02ZM234.263 30.88v-4.598h1.276v.54c.045-.063.089-.12.133-.171a.989.989 0 0 1 .149-.145c.068-.064.142-.117.219-.16a1.45 1.45 0 0 1 .244-.106 1.794 1.794 0 0 1 .59-.094c.075 0 .171.014.291.042.121.029.217.057.292.086.086.035.174.081.265.142a1.343 1.343 0 0 1 .565.742c.039.125.065.254.073.385.009.132.013.247.013.344v2.993h-1.284v-2.77c0-.08-.006-.16-.017-.236a4.062 4.062 0 0 0-.035-.202 1.007 1.007 0 0 0-.056-.171.514.514 0 0 0-.09-.154.525.525 0 0 0-.124-.117 2.594 2.594 0 0 0-.141-.09.417.417 0 0 0-.163-.056.764.764 0 0 0-.462.064.952.952 0 0 0-.12.082.564.564 0 0 0-.103.107c-.028.04-.056.086-.085.137-.029.052-.051.1-.069.146a1.142 1.142 0 0 0-.056.227c-.013.095-.02.182-.02.262v2.77h-1.285ZM244.279 29.515l-.428 1.363h-1.371l2.227-6.604h1.508l2.226 6.604h-1.422l-.419-1.363h-2.321Zm1.182-3.724h-.017l-.796 2.556h1.593l-.78-2.556ZM252.193 29.82a.72.72 0 0 1-.129.126 1.026 1.026 0 0 1-.203.125 1.694 1.694 0 0 1-.229.092c-.093.023-.19.04-.294.052a2.289 2.289 0 0 1-.251.017c-.087 0-.19-.013-.312-.039a2.279 2.279 0 0 1-.354-.109 2.071 2.071 0 0 1-.311-.186 1.856 1.856 0 0 1-.329-.29 1.922 1.922 0 0 1-.173-.251 2.559 2.559 0 0 1-.155-.312 1.78 1.78 0 0 1-.104-.385 2.68 2.68 0 0 1-.043-.463 2.721 2.721 0 0 1 .148-.867c.034-.098.083-.206.146-.325.064-.118.142-.224.234-.316.097-.098.206-.19.324-.273.118-.084.232-.146.341-.187.098-.035.205-.064.321-.091a1.5 1.5 0 0 1 .328-.04c.098 0 .192.007.282.018.089.012.174.032.254.06.075.024.145.052.208.083.063.032.121.07.173.118.045.04.087.082.125.125.037.043.076.096.117.16l.009-.424h1.297v3.664c0 .168-.012.352-.034.55a2.02 2.02 0 0 1-.095.456 1.898 1.898 0 0 1-.182.377 1.246 1.246 0 0 1-.242.264c-.092.075-.194.14-.302.195-.111.054-.22.1-.329.134-.127.04-.276.07-.445.091a4.095 4.095 0 0 1-.926.01 3.14 3.14 0 0 1-.385-.057 3.956 3.956 0 0 1-.307-.091 1.42 1.42 0 0 1-.315-.151 1.436 1.436 0 0 1-.433-.494 1.406 1.406 0 0 1-.094-.273 1.368 1.368 0 0 1-.043-.342h1.228a.45.45 0 0 0 .172.354c.058.04.135.074.23.1.094.026.197.04.306.04.081 0 .164-.008.25-.022a.897.897 0 0 0 .226-.065.532.532 0 0 0 .168-.121.966.966 0 0 0 .117-.148.586.586 0 0 0 .069-.169c.018-.065.032-.137.043-.212a.98.98 0 0 0 .022-.173c.003-.064.004-.132.004-.207v-.277l-.123.15Zm-1.513-1.26c.023.099.046.173.069.226.023.045.058.107.104.186.046.077.106.14.181.186a.77.77 0 0 0 .247.103.985.985 0 0 0 .212.035c.046 0 .113-.005.199-.017a.488.488 0 0 0 .207-.069.651.651 0 0 0 .165-.147.946.946 0 0 0 .121-.199c.029-.07.058-.163.087-.281a1.62 1.62 0 0 0 .042-.385c0-.15-.01-.283-.03-.4a1.26 1.26 0 0 0-.099-.32.748.748 0 0 0-.312-.338.698.698 0 0 0-.203-.068 1.045 1.045 0 0 0-.194-.026.792.792 0 0 0-.183.026.794.794 0 0 0-.155.052.874.874 0 0 0-.173.112.568.568 0 0 0-.112.13 1.07 1.07 0 0 0-.095.182 1.05 1.05 0 0 0-.061.19 8.777 8.777 0 0 0-.035.218c-.011.08-.016.162-.016.242 0 .142.011.264.034.362ZM256.175 28.95c0 .074.002.144.008.206l.018.18c.011.058.027.121.047.193a.92.92 0 0 0 .064.176c.028.045.064.097.107.154a.527.527 0 0 0 .15.137.655.655 0 0 0 .175.073c.072.02.133.03.184.03.051 0 .115-.005.189-.017a.614.614 0 0 0 .18-.052.596.596 0 0 0 .256-.197.638.638 0 0 0 .086-.153.671.671 0 0 0 .051-.18h1.165a1.47 1.47 0 0 1-.068.355c-.04.129-.086.242-.137.338-.058.11-.124.204-.201.284-.077.08-.153.148-.227.206a.977.977 0 0 1-.257.141 3.238 3.238 0 0 1-.317.108 3.514 3.514 0 0 1-.735.086c-.12 0-.253-.01-.399-.03a2.562 2.562 0 0 1-.39-.082 1.912 1.912 0 0 1-.641-.36 1.524 1.524 0 0 1-.296-.373 2.172 2.172 0 0 1-.209-.493 2.984 2.984 0 0 1-.099-.507 5.22 5.22 0 0 1-.03-.583 3.433 3.433 0 0 1 .18-1.098 2.454 2.454 0 0 1 .308-.584 2.04 2.04 0 0 1 .21-.231c.089-.087.169-.155.244-.206.08-.051.171-.1.275-.146.102-.045.197-.08.281-.103a2.654 2.654 0 0 1 .566-.076c.165 0 .327.012.484.038.157.026.295.065.415.116.103.04.202.095.3.164a2.042 2.042 0 0 1 .476.47c.065.098.12.204.166.318.046.11.088.236.125.382a3.383 3.383 0 0 1 .107.87c.006.195.008.343.008.446h-2.819Zm1.49-.927a1.36 1.36 0 0 0-.013-.184 2.718 2.718 0 0 0-.03-.185.871.871 0 0 0-.137-.316.526.526 0 0 0-.103-.108.815.815 0 0 0-.137-.09.488.488 0 0 0-.167-.056 1.16 1.16 0 0 0-.167-.013.764.764 0 0 0-.326.077.65.65 0 0 0-.325.399c-.024.066-.04.119-.052.159l-.021.15c-.009.06-.013.116-.013.167h1.491ZM260.291 30.88v-4.643h1.288v.546a3.49 3.49 0 0 1 .135-.173.944.944 0 0 1 .151-.147 1.1 1.1 0 0 1 .22-.16 1.535 1.535 0 0 1 .529-.178 1.317 1.317 0 0 1 .609.016c.121.03.219.059.294.087.087.036.176.083.268.144.092.06.171.123.234.186a1.356 1.356 0 0 1 .337.564c.04.127.066.256.074.389.009.133.013.25.013.347v3.023h-1.297v-2.8c0-.08-.006-.16-.018-.237a4.397 4.397 0 0 0-.034-.204 1.252 1.252 0 0 0-.057-.173.567.567 0 0 0-.091-.156.53.53 0 0 0-.125-.117 2.544 2.544 0 0 0-.144-.091.41.41 0 0 0-.164-.057.718.718 0 0 0-.467.064c-.04.024-.08.052-.121.083a.523.523 0 0 0-.103.108 1.297 1.297 0 0 0-.156.286 1.707 1.707 0 0 0-.078.494v2.798h-1.297v.001ZM268.315 27.9a1.3 1.3 0 0 0-.027-.235.841.841 0 0 0-.068-.228.595.595 0 0 0-.214-.274.435.435 0 0 0-.145-.072.386.386 0 0 0-.3.018.512.512 0 0 0-.153.106.784.784 0 0 0-.155.245 1.704 1.704 0 0 0-.094.27 3 3 0 0 0-.055.39 4.465 4.465 0 0 0-.022.391c0 .097.007.227.022.39.013.163.027.279.038.347.017.092.045.197.082.313.037.117.084.216.141.297a.565.565 0 0 0 .184.17c.072.04.136.061.194.061.028 0 .068-.003.119-.009a.341.341 0 0 0 .146-.051.516.516 0 0 0 .145-.13.596.596 0 0 0 .093-.178 1.07 1.07 0 0 0 .065-.254c.014-.1.022-.193.022-.278h1.25c0 .097-.01.218-.031.36a1.81 1.81 0 0 1-.072.334 2.809 2.809 0 0 1-.146.33c-.063.123-.128.22-.197.288-.103.103-.2.183-.291.24a1.81 1.81 0 0 1-.359.163c-.126.04-.25.068-.373.086a3.298 3.298 0 0 1-.433.026 1.888 1.888 0 0 1-.711-.163 2.01 2.01 0 0 1-.402-.257 1.805 1.805 0 0 1-.505-.656 3.658 3.658 0 0 1-.155-.365 3.533 3.533 0 0 1-.145-.995c0-.16.01-.33.03-.514.019-.182.059-.355.116-.514.04-.115.09-.24.149-.373.06-.135.136-.256.227-.365.074-.091.17-.185.287-.283.117-.097.238-.174.364-.231.102-.046.225-.084.368-.112.143-.028.269-.042.377-.042.138 0 .277.011.42.034.143.023.26.048.352.077.113.04.227.093.342.159.114.066.211.139.291.218.096.093.18.197.248.313.068.119.12.225.154.322.035.093.059.196.074.314.014.117.021.224.021.321h-1.268v-.003ZM274.976 26.238l-2.215 5.76h-1.288l.554-1.593-1.635-4.167h1.384l.934 2.832.994-2.832h1.272Z" fill="#fff"/>
</svg>
